<svg xmlns="http://www.w3.org/2000/svg" xmlns:xlink="http://www.w3.org/1999/xlink" width="3288" zoomAndPan="magnify" viewBox="0 0 2466 482.999988" height="644" preserveAspectRatio="xMidYMid meet" version="1.0"><defs><g/><clipPath id="45daae04f6"><rect x="0" width="2439" y="0" height="439"/></clipPath></defs><g transform="matrix(1, 0, 0, 1, 27, 44)"><g clip-path="url(#45daae04f6)"><g fill="#ff751f" fill-opacity="1"><g transform="translate(3.755624, 350.239626)"><g><path d="M 163.71875 9.203125 C 138 9.203125 115.96875 7.226562 97.625 3.28125 C 79.289062 -0.65625 64.132812 -6.054688 52.15625 -12.921875 C 40.175781 -19.796875 30.71875 -27.757812 23.78125 -36.8125 C 16.84375 -45.875 11.945312 -55.554688 9.09375 -65.859375 C 6.25 -76.160156 4.828125 -86.644531 4.828125 -97.3125 L 4.828125 -98.625 L 148.375 -98.625 L 148.375 -95.78125 C 148.519531 -94.75 148.957031 -93.429688 149.6875 -91.828125 C 150.414062 -90.222656 152.171875 -89.421875 154.953125 -89.421875 C 157.140625 -89.421875 158.742188 -90.148438 159.765625 -91.609375 C 160.785156 -93.066406 161.296875 -94.457031 161.296875 -95.78125 C 161.296875 -96.363281 160.894531 -97.3125 160.09375 -98.625 C 159.289062 -99.9375 157.867188 -100.738281 155.828125 -101.03125 C 151.734375 -101.757812 145.992188 -102.488281 138.609375 -103.21875 C 131.234375 -103.957031 122.90625 -104.984375 113.625 -106.296875 C 104.351562 -107.609375 94.75 -109.503906 84.8125 -111.984375 C 74.875 -114.472656 65.226562 -117.867188 55.875 -122.171875 C 46.53125 -126.484375 38.09375 -132.035156 30.5625 -138.828125 C 23.039062 -145.628906 17.050781 -153.882812 12.59375 -163.59375 C 8.144531 -173.3125 5.921875 -184.894531 5.921875 -198.34375 L 5.921875 -199.21875 C 6.648438 -225.519531 12.75 -246.554688 24.21875 -262.328125 C 35.6875 -278.109375 52.015625 -289.46875 73.203125 -296.40625 C 94.390625 -303.351562 120.03125 -306.828125 150.125 -306.828125 C 176.425781 -306.828125 199.109375 -304.234375 218.171875 -299.046875 C 237.242188 -293.859375 252.914062 -286.515625 265.1875 -277.015625 C 277.457031 -267.523438 286.585938 -256.3125 292.578125 -243.375 C 298.566406 -230.445312 301.632812 -216.164062 301.78125 -200.53125 L 301.78125 -199.65625 L 163.9375 -199.65625 L 163.9375 -202.28125 C 163.9375 -203.75 163.382812 -205.101562 162.28125 -206.34375 C 161.1875 -207.582031 159.617188 -208.203125 157.578125 -208.203125 C 155.679688 -208.203125 154.109375 -207.546875 152.859375 -206.234375 C 151.617188 -204.921875 151 -203.457031 151 -201.84375 C 151 -201.257812 151.691406 -200.128906 153.078125 -198.453125 C 154.472656 -196.773438 156.117188 -195.789062 158.015625 -195.5 C 162.109375 -194.757812 167.84375 -194.132812 175.21875 -193.625 C 182.59375 -193.113281 190.921875 -192.3125 200.203125 -191.21875 C 209.484375 -190.125 219.085938 -188.367188 229.015625 -185.953125 C 238.953125 -183.546875 248.632812 -180.078125 258.0625 -175.546875 C 267.488281 -171.015625 275.960938 -165.023438 283.484375 -157.578125 C 291.003906 -150.128906 296.992188 -140.851562 301.453125 -129.75 C 305.910156 -118.644531 308.140625 -105.347656 308.140625 -89.859375 L 308.140625 -88.765625 C 307.554688 -72.109375 303.570312 -57.640625 296.1875 -45.359375 C 288.8125 -33.085938 278.660156 -22.894531 265.734375 -14.78125 C 252.804688 -6.675781 237.679688 -0.65625 220.359375 3.28125 C 203.046875 7.226562 184.164062 9.203125 163.71875 9.203125 Z M 163.71875 9.203125 "/></g></g></g><g fill="#ff751f" fill-opacity="1"><g transform="translate(344.942408, 350.239626)"><g><path d="M 5.703125 0 L 5.703125 -298.0625 L 167 -298.0625 L 167 0 Z M 5.703125 0 "/></g></g></g><g fill="#ff751f" fill-opacity="1"><g transform="translate(545.890725, 350.239626)"><g><path d="M 323.703125 0 L 171.828125 0 L 167.21875 -83.71875 L 158.453125 -83.71875 L 158.453125 0 L 5.703125 0 L 5.703125 -298.0625 L 158.234375 -298.0625 C 177.671875 -298.0625 195.753906 -297.253906 212.484375 -295.640625 C 229.210938 -294.035156 244.332031 -291.003906 257.84375 -286.546875 C 271.351562 -282.097656 282.929688 -275.671875 292.578125 -267.265625 C 302.222656 -258.867188 309.601562 -247.910156 314.71875 -234.390625 C 319.832031 -220.878906 322.390625 -204.1875 322.390625 -184.3125 L 322.390625 -181.6875 C 322.390625 -165.175781 319.941406 -151.257812 315.046875 -139.9375 C 310.148438 -128.613281 303.390625 -119.222656 294.765625 -111.765625 Z M 158.671875 -165.03125 L 163.28125 -165.03125 C 166.488281 -165.03125 168.640625 -165.796875 169.734375 -167.328125 C 170.835938 -168.859375 171.390625 -172.109375 171.390625 -177.078125 L 171.390625 -179.5 C 171.390625 -184.613281 170.875 -188.046875 169.84375 -189.796875 C 168.820312 -191.546875 166.34375 -192.421875 162.40625 -192.421875 L 158.671875 -192.421875 Z M 158.671875 -165.03125 "/></g></g></g><g fill="#ff751f" fill-opacity="1"><g transform="translate(901.101358, 350.239626)"><g><path d="M 5.703125 0 L 5.703125 -298.0625 L 167 -298.0625 L 167 0 Z M 5.703125 0 "/></g></g></g><g fill="#ff751f" fill-opacity="1"><g transform="translate(1102.049675, 350.239626)"><g><path d="M 2.1875 0 L 2.1875 -89.203125 L 81.96875 -187.828125 L 7.453125 -187.828125 L 7.453125 -298.0625 L 271.984375 -298.0625 L 271.765625 -210.828125 L 192.421875 -110.453125 L 274.609375 -110.453125 L 274.609375 0 Z M 2.1875 0 "/></g></g></g><g fill="#ff751f" fill-opacity="1"><g transform="translate(1407.957724, 350.239626)"><g><path d="M 3.5 -149.6875 C 3.5 -201.550781 18.035156 -240.707031 47.109375 -267.15625 C 76.191406 -293.601562 119.296875 -306.828125 176.421875 -306.828125 C 233.554688 -306.828125 276.660156 -293.601562 305.734375 -267.15625 C 334.804688 -240.707031 349.34375 -201.550781 349.34375 -149.6875 C 349.34375 -97.53125 334.804688 -58.117188 305.734375 -31.453125 C 276.660156 -4.785156 233.554688 8.546875 176.421875 8.546875 C 119.296875 8.546875 76.191406 -4.785156 47.109375 -31.453125 C 18.035156 -58.117188 3.5 -97.53125 3.5 -149.6875 Z M 170.28125 -127.765625 C 170.28125 -123.535156 172.328125 -121.421875 176.421875 -121.421875 C 180.515625 -121.421875 182.5625 -123.535156 182.5625 -127.765625 L 182.5625 -171.609375 C 182.5625 -175.835938 180.515625 -177.953125 176.421875 -177.953125 C 172.328125 -177.953125 170.28125 -175.835938 170.28125 -171.609375 Z M 170.28125 -127.765625 "/></g></g></g><g fill="#ff751f" fill-opacity="1"><g transform="translate(1789.024726, 350.239626)"><g><path d="M 5.703125 0 L 5.703125 -298.0625 L 175.109375 -298.0625 L 182.125 -269.34375 L 201.40625 -190.890625 L 208.640625 -191.546875 L 190.234375 -298.0625 L 327.640625 -298.0625 L 327.640625 0 L 158.015625 0 L 151 -26.953125 L 126.671875 -136.75 L 119.4375 -136.75 L 141.359375 0 Z M 5.703125 0 "/></g></g></g><g fill="#ff751f" fill-opacity="1"><g transform="translate(2150.590012, 350.239626)"><g><path d="M 5.703125 0 L 5.703125 -298.0625 L 251.375 -298.0625 L 251.375 -194.390625 L 169.1875 -194.390625 L 169.1875 -183.875 L 234.5 -183.875 L 234.5 -110.890625 L 169.1875 -110.890625 L 169.1875 -100.59375 L 253.34375 -100.59375 L 253.34375 0 Z M 5.703125 0 "/></g></g></g></g></g></svg>